<?xml version="1.0" encoding="UTF-8"?>
<svg width="142px" height="78px" viewBox="0 0 142 78" version="1.1" xmlns="http://www.w3.org/2000/svg" xmlns:xlink="http://www.w3.org/1999/xlink">
    <!-- Generator: Sketch 49.1 (51147) - http://www.bohemiancoding.com/sketch -->
    <title>logo/nrma</title>
    <desc>Created with Sketch.</desc>
    <defs>
        <path d="M48.8362087,32.6012782 C51.6491917,32.5673378 53.3109152,34.4897239 53.3407828,36.6008187 C53.3923723,40.1360541 49.1484607,41.222148 47.8682276,41.0497306 C46.3232591,40.8433727 45.493755,41.8317181 46.3789214,43.3739713 C46.3789214,43.3739713 52.0333974,54.0095451 52.549292,54.9232215 C53.0624713,55.8341827 54.124128,56.7885877 54.8694599,56.7885877 L63.2093028,56.7885877 C64.3497013,56.7885877 65.1058941,55.240904 64.5913572,54.2145453 C64.0768203,53.1895443 58.8961527,43.4337065 58.8961527,43.4337065 C62.8902628,41.6457245 64.8669535,39.1287021 64.9742053,36.429759 C65.0896027,33.4172062 62.6065207,29.0225991 55.241447,29.0225991 L52.3198546,29.0225991 C52.3198546,29.0225991 37.1946405,29.0076653 36.054242,29.0225991 C34.4861941,29.03346 33.4883454,30.2811103 33.4883454,31.1839258 L33.4883454,54.7195789 C33.4883454,55.6332554 34.6898367,56.7885877 35.7148377,56.7885877 L43.2387527,56.7885877 C44.4959063,56.7885877 45.2955428,55.74458 45.2955428,54.7195789 L45.2955428,32.6012782 C46.6667363,32.6012782 47.930678,32.5863445 48.8362087,32.6012782 Z M121.69817,34.2453528 L126.247546,45.4063244 L117.184093,45.4063244 L121.69817,34.2453528 Z M69.6389782,29.015811 C67.6989431,29.015811 67.1640419,30.4032959 67.1640419,31.2328 L67.1640419,55.010109 C67.1640419,55.964514 67.9215924,56.7831572 68.9072225,56.7831572 L71.1459334,56.7831572 C72.0473913,56.7831572 73.126697,56.3731568 73.126697,55.1078575 L73.126697,39.3187685 L79.3405113,54.8200426 C79.6894189,55.6468315 80.5460754,56.7831572 81.9389908,56.7831572 L86.5399557,56.7831572 C87.3640294,56.7831572 88.6999248,56.5632232 89.3963825,54.8200426 C90.0901249,53.0795773 95.4839383,39.3187685 95.4839383,39.3187685 L95.4839383,54.3475918 C95.4839383,55.5178579 96.464138,56.7831572 98.021325,56.7831572 L110.834517,56.7831572 C111.896174,56.7831572 112.675446,56.46819 113.339321,54.8852082 C114.009984,53.296796 115.18025,50.3181837 115.18025,50.3181837 L128.277184,50.3181837 C128.685826,51.5237479 130.088245,54.7575922 130.088245,54.7575922 C130.431722,55.5816659 131.337253,56.7831572 132.817056,56.7831572 L139.854944,56.7831572 C140.805276,56.7831572 142.491437,56.1858056 141.539747,53.7801078 C140.5867,51.3662643 132.371757,31.2952504 132.371757,31.2952504 C131.896591,30.0571035 130.973412,29.015811 130.019007,29.015811 L119.364426,29.015811 C118.509127,29.015811 117.433894,29.4244538 116.89492,30.7223359 C116.353231,32.0270061 107.312858,54.187393 107.312858,54.187393 L107.312858,31.9631981 C107.312858,30.5349848 106.570241,29.015811 105.161034,29.015811 L95.0413551,29.015811 C94.027215,29.015811 93.1067505,29.6796859 92.6573792,30.8200844 C92.2147959,31.9631981 87.2065458,44.7098667 87.2065458,44.7098667 L81.8154476,30.8526672 C81.4013743,29.8330966 80.512135,29.015811 79.2427629,29.015811 L69.6389782,29.015811 Z M30.1988387,30.8784619 C30.1988387,30.1344877 29.3231756,29.0782614 28.4705919,29.0782614 L25.8218806,29.0782614 C24.5362171,29.0782614 23.9999582,30.0218054 23.9999582,30.8784619 C23.9999582,32.0731651 24.0053887,42.5458248 24.0053887,42.5458248 C24.0053887,42.5458248 14.2699152,30.3408455 13.8707757,29.8263085 C13.4716362,29.3144868 12.9204436,29.0782614 12.2375621,29.0782614 L1.83957141,29.0782614 C1.27208739,29.0782614 0,29.7937257 0,30.8784619 L0,54.7209365 C0,55.8735536 0.775199465,56.7885877 1.73367726,56.7885877 L4.29414345,56.7885877 C5.2648398,56.7885877 5.95179414,55.9129245 5.95179414,54.7209365 L5.95179414,37.10721 C5.95179414,37.10721 19.9325369,54.6897113 20.6004846,55.4744141 C21.4367768,56.4709052 22.3735327,56.7885877 23.5125736,56.7885877 L27.9017503,56.7885877 C29.044864,56.7885877 30.1988387,55.6576925 30.1988387,54.7209365 C30.1988387,53.6036175 30.1974811,31.417436 30.1988387,30.8784619 Z M90.3535027,13.2701658 C89.9652241,13.8213585 88.9456535,14.5083128 88.3143615,14.8422866 C88.337441,14.8952337 88.3143615,15.0635783 88.337441,15.1423201 C90.1023435,15.8849367 92.7225448,15.6120556 93.9579765,14.6983792 C95.2029116,13.7928485 94.8037721,13.3733448 93.6810226,13.5444045 C93.0958896,13.6326497 91.891683,13.6285768 90.3535027,13.2701658 Z M92.4184385,10.6798321 C92.0844647,11.3409917 90.739066,12.084966 90.2734032,12.3076152 C90.352145,12.3619199 90.4064497,12.5519863 90.4661849,12.6361586 C94.7589707,13.3502653 96.9691716,12.5519863 98.0362588,11.5894356 C99.1128493,10.6228121 99.2241739,9.7702285 97.9303647,10.2915535 C96.6338402,10.8169514 94.871653,10.9242032 92.4184385,10.6798321 Z M94.5390367,7.86820669 C94.293308,8.41939931 93.4407243,9.09413509 92.6981077,9.56251305 C92.7496971,9.70099002 92.7496971,9.93585781 92.7225448,10.0702619 C95.5341702,10.4585405 99.0001671,9.60595681 100.298049,8.47506161 C101.593216,7.34416642 101.120765,6.82419901 100.079473,7.23419942 C99.0313923,7.64827269 96.9080789,7.86820669 94.5390367,7.86820669 Z M96.3297339,4.75383266 C96.1926146,5.72045616 95.3088057,6.54724508 94.374765,7.12151719 C95.9482435,7.15274239 99.9993734,7.19075567 101.811792,5.57926396 C103.899808,3.73833493 102.610071,2.91154601 101.400434,3.5156857 C100.18944,4.11982539 98.8358954,4.39813693 96.3297339,4.75383266 Z M90.1308534,4.58820335 C90.1308534,5.25072058 90.0493964,5.96890012 88.2858515,6.74138435 C89.6081708,7.15138477 93.7380425,7.19754376 94.8119178,6.10466185 C96.0392038,4.8746606 95.6454948,3.85916287 94.3462551,4.23250762 C93.6593007,4.43071975 91.9500606,4.63979281 90.1308534,4.58820335 Z M81.7529972,13.7928485 C81.3402815,14.9223861 80.5148502,15.2264923 79.4993525,15.0635783 C83.2124358,17.5955345 85.9385313,16.5990434 86.3783993,16.380467 C88.4691299,15.3799031 87.4590626,14.8789423 86.1896905,15.0323531 C85.0411462,15.1721876 82.85674,14.5911274 81.7529972,13.7928485 Z M83.9618405,12.0537408 C83.7120389,12.4406617 82.2770375,12.9375496 81.5086261,12.8560926 C82.5580642,13.8471532 86.9879694,15.1762605 88.8927065,13.7113915 C90.4227411,12.531622 89.472409,12.3415556 88.7257195,12.634801 C87.8215464,12.9932119 85.2271398,12.6076486 83.9618405,12.0537408 Z M85.7484648,10.1272818 C85.449789,10.4313881 84.8945236,10.708342 84.4261456,10.7911567 C84.4410794,10.9893688 84.3908476,11.2948327 84.3053177,11.4238063 C85.9154518,12.1609925 89.3366473,12.4230127 91.0133046,11.095263 C91.9622791,10.3417854 92.0871799,9.73493045 90.7119136,10.2399641 C90.0371778,10.4856928 87.1590292,10.5399975 85.7484648,10.1272818 Z M88.255984,7.56410042 C88.1229375,7.78674966 87.2119763,8.67191612 86.2738627,8.83211496 C86.3105184,9.02082376 86.2887965,9.31406909 86.2630018,9.4715527 C87.5554534,9.86797694 90.6236685,10.1299971 92.9153265,8.60946573 C93.9932746,7.90621998 93.7584068,7.17853712 92.6383725,7.61840511 C92.1618489,7.80711391 89.5552237,7.84241196 88.255984,7.56410042 Z M76.0442166,12.6891056 C75.7156732,12.8628807 74.6865993,13.1683445 74.3947116,13.2905301 C75.5011696,13.8648022 76.0686537,15.5794728 77.2375621,15.8279168 C78.54359,16.1062283 79.4531935,15.0839425 78.6209741,14.6861607 C77.982894,14.383412 77.0189858,13.6340073 76.0442166,12.6891056 Z M77.9258741,11.4224487 C77.6489202,11.6736079 76.9307406,12.137913 76.6822967,12.3334099 C77.6760725,13.2158611 78.5449476,13.9924182 79.6079619,14.319604 C80.8909102,14.7119554 81.3986591,13.1547684 80.7076319,12.8017879 C80.043757,12.4623836 79.0486236,12.137913 77.9258741,11.4224487 Z M79.4667697,9.82589081 C79.2712728,10.0716195 78.6454113,10.708342 78.3915368,10.9554284 C79.4083922,11.726555 81.4950499,12.6958937 82.7739254,12.084966 C83.9822048,11.5093362 83.8437278,10.8169514 83.076674,10.8726137 C82.416872,10.9187727 80.7076319,10.4313881 79.4667697,9.82589081 Z M81.0076653,7.86820669 C80.8148837,8.17367058 80.1591545,8.94343958 79.8536906,9.33307573 C81.1189899,10.0702619 83.6007143,10.4313881 84.7044572,9.9901625 C85.8068424,9.5502945 85.9168094,8.85247922 84.8673712,8.88641965 C84.1505493,8.91628723 82.3055474,8.39088934 81.0076653,7.86820669 Z M82.583859,5.66343623 C82.445382,5.82770792 81.8398847,6.71423201 81.5602155,7.12151719 C82.7454154,7.86956431 85.2447888,8.77781027 86.9350223,7.75823969 C88.1500898,7.0278416 87.5160825,6.65585446 86.4666444,6.74002673 C85.7294582,6.79840428 83.6604495,6.13452943 82.583859,5.66343623 Z M84.0962446,3.35005639 C83.9061782,3.70575212 83.3807803,4.45379924 83.0210117,4.97240904 C84.204854,5.49916454 85.8394252,6.43727808 87.9844605,6.02456243 C89.9652241,5.63899912 89.4710514,4.13475918 88.4256861,4.14697774 C87.706149,4.15919629 85.9154518,3.8455867 84.0962446,3.35005639 Z M81.9471365,5.36476043 C79.880843,3.98406366 75.7496136,6.32595347 79.1938886,8.94208196 C79.4993525,8.66920089 80.1835916,7.78674966 80.2908434,7.61976273 C78.9956765,7.01426542 79.4369021,5.71909854 80.9004136,6.71287439 C81.1760099,6.43592046 81.7828648,5.66479385 81.9471365,5.36476043 Z M72.3759347,2.34134676 L70.3490121,4.36826935 L68.2460629,2.27210828 L68.2460629,4.17141485 L70.3490121,6.27164877 L70.3490121,5.49780693 L72.3759347,3.47224195 L72.3759347,2.34134676 Z M72.3759347,5.01856803 L70.3490121,7.04006015 L68.2460629,4.94525669 L68.2460629,6.84184803 L70.3490121,8.94343958 L70.3490121,8.17231296 L72.3759347,6.14674798 L72.3759347,5.01856803 Z M72.3759347,7.68900121 L70.3490121,9.71592381 L68.2460629,7.6170475 L68.2460629,9.52042692 L70.3490121,11.616588 L70.3490121,10.8427461 L72.3759347,8.81853879 L72.3759347,7.68900121 Z M72.3759347,10.360792 L70.3490121,12.3890722 L68.2460629,10.2888383 L68.2460629,12.1895025 L70.3490121,14.2897364 L70.3490121,13.5145369 L72.3759347,11.4903296 L72.3759347,10.360792 Z M72.3759347,13.0325828 L70.3490121,15.0622206 L68.2460629,12.9633443 L68.2460629,14.3291073 C68.2460629,15.0038431 69.2900706,15.5265258 70.3286478,15.5197377 C71.3563641,15.5170224 72.3759347,14.9943398 72.3759347,14.3291073 L72.3759347,13.0325828 Z M70.3109988,1.03667655 C69.5235808,1.03667655 68.7456661,1.27833243 68.4103346,1.66253812 L70.3490121,3.59850036 L70.3490121,2.82465851 L71.8057354,1.36521993 C71.413384,1.15750449 70.8676219,1.03667655 70.3109988,1.03667655 Z M76.8506412,9.8801955 C73.6819625,7.31972931 76.5750449,0.565583358 83.4337274,3.10432767 C83.2626676,3.41522202 82.9585613,3.9555537 82.4969715,4.58005765 C78.6942855,2.75813526 74.850871,7.05363633 78.8476962,9.50685075 C77.3000125,11.2948327 75.5432558,12.4732445 73.8204395,12.5261916 C73.6466644,12.5479134 73.4946113,12.5669201 73.3778562,12.6456619 L73.3778562,14.840929 C73.3778562,15.8265592 71.8681858,16.5705334 70.3490121,16.5773215 C68.8094741,16.5800368 67.2604328,15.8360625 67.2604328,14.840929 L67.2604328,12.6605957 C67.1396048,12.5669201 66.9780484,12.5479134 66.7906972,12.5261916 C65.0678809,12.4732445 63.3165546,11.2948327 61.7634404,9.50685075 C65.7602657,7.05363633 61.9154935,2.75813526 58.1087347,4.58005765 C57.6525753,3.9555537 57.3538995,3.41522202 57.1760516,3.10432767 C64.038807,0.565583358 66.9291742,7.31972931 63.7672835,9.8801955 C64.7773508,11.1685743 66.3874849,11.4563892 67.2604328,11.2703956 L67.2604328,1.55800159 C67.2604328,0.815384937 68.7918251,0.000814570366 70.3205021,0.000814570366 C71.8478215,0.000814570366 73.3778562,0.842537282 73.3778562,1.55800159 L73.3778562,11.2771837 C74.2616651,11.4468858 75.8378587,11.1509253 76.8506412,9.8801955 Z M50.2589916,13.2701658 C48.7153808,13.6285768 47.5138895,13.6326497 46.9192531,13.5444045 C45.8100798,13.3733448 45.4068675,13.7928485 46.6490873,14.6983792 C47.8899495,15.6120556 50.5101508,15.8849367 52.2709804,15.1423201 C52.2981328,15.0635783 52.2709804,14.8952337 52.2981328,14.8422866 C51.6627679,14.5083128 50.6445549,13.8213585 50.2589916,13.2701658 Z M48.1926981,10.6798321 C45.7381261,10.9242032 43.9786541,10.8169514 42.6794143,10.2915535 C41.3842475,9.7702285 41.4982873,10.6228121 42.5748778,11.5894356 C43.6460378,12.5519863 45.8521659,13.3502653 50.147667,12.6361586 C50.2060445,12.5519863 50.2589916,12.3619199 50.3431639,12.3076152 C49.8720707,12.084966 48.5253143,11.3409917 48.1926981,10.6798321 Z M46.0720999,7.86820669 C43.7030578,7.86820669 41.581102,7.64827269 40.5330214,7.23419942 C39.4862985,6.82419901 39.0192782,7.34416642 40.314445,8.47506161 C41.6068967,9.60595681 45.0810393,10.4585405 47.8885918,10.0702619 C47.8641547,9.93585781 47.8641547,9.70099002 47.9184594,9.56251305 C47.1704123,9.09413509 46.3219015,8.41939931 46.0720999,7.86820669 Z M44.2786875,4.75383266 C41.7738836,4.39813693 40.4203392,4.11982539 39.2066293,3.5156857 C37.9969924,2.91154601 36.7126864,3.73833493 38.7939137,5.57926396 C40.6144785,7.19075567 44.6656084,7.15274239 46.2336564,7.12151719 C45.2955428,6.54724508 44.4185221,5.72045616 44.2786875,4.75383266 Z M50.4829985,4.58820335 C48.6583608,4.63979281 46.9531935,4.43071975 46.2675968,4.23250762 C44.9697147,3.85916287 44.5746481,4.8746606 45.7937884,6.10466185 C46.8758093,7.19754376 51.0043235,7.15138477 52.3225699,6.74138435 C50.5617403,5.96890012 50.4829985,5.25072058 50.4829985,4.58820335 Z M58.8581394,13.7928485 C57.7598271,14.5911274 55.5727056,15.1721876 54.4228038,15.0323531 C53.1466436,14.8789423 52.1433644,15.3799031 54.2300221,16.380467 C54.6753206,16.5990434 57.3987009,17.5955345 61.1172146,15.0635783 C60.0935712,15.2264923 59.2708551,14.9223861 58.8581394,13.7928485 Z M56.653369,12.0537408 C55.3839968,12.6076486 52.7895902,12.9932119 51.8854171,12.634801 C51.1414428,12.3415556 50.1883955,12.531622 51.7197878,13.7113915 C53.6258825,15.1762605 58.0585029,13.8471532 59.1038682,12.8560926 C58.3354568,12.9375496 56.9004553,12.4406617 56.653369,12.0537408 Z M54.8599566,10.1272818 C53.4521074,10.5399975 50.5726012,10.4856928 49.9019383,10.2399641 C48.5185263,9.73493045 48.6502151,10.3417854 49.5991896,11.095263 C51.2690589,12.4230127 54.6956849,12.1609925 56.3044613,11.4238063 C56.2148586,11.2948327 56.167342,10.9893688 56.1809182,10.7911567 C55.7179707,10.708342 55.1654204,10.4313881 54.8599566,10.1272818 Z M52.3565103,7.56410042 C51.0599858,7.84241196 48.4452149,7.80711391 47.9700489,7.61840511 C46.8540875,7.17853712 46.6192197,7.90621998 47.6930949,8.60946573 C49.9956139,10.1299971 53.0570408,9.86797694 54.3549229,9.4715527 C54.3223401,9.31406909 54.3006182,9.02082376 54.3345587,8.83211496 C53.4032332,8.67191612 52.4963449,7.78674966 52.3565103,7.56410042 Z M64.5669201,12.6891056 C63.5948661,13.6340073 62.6255274,14.383412 61.9888049,14.6861607 C61.1565855,15.0839425 62.0634738,16.1062283 63.3735745,15.8279168 C64.5411254,15.5794728 65.109967,13.8648022 66.2109946,13.2905301 C65.9218221,13.1683445 64.8954635,12.8628807 64.5669201,12.6891056 Z M62.6866202,11.4224487 C61.555725,12.137913 60.5633067,12.4623836 59.9089352,12.8017879 C59.217908,13.1547684 59.7256569,14.7119554 61.0045324,14.319604 C62.0648314,13.9924182 62.9377794,13.2158611 63.9274824,12.3334099 C63.6817536,12.137913 62.9649317,11.6736079 62.6866202,11.4224487 Z M61.1430093,9.82589081 C59.9102928,10.4313881 58.1969798,10.9187727 57.5317474,10.8726137 C56.7619784,10.8169514 56.624859,11.5093362 57.8372112,12.084966 C59.1201596,12.6958937 61.1959564,11.726555 62.2195998,10.9554284 C61.9697982,10.708342 61.3371486,10.0716195 61.1430093,9.82589081 Z M59.6021137,7.86820669 C58.3083044,8.39088934 56.4592297,8.91628723 55.7437654,8.88641965 C54.6943272,8.85247922 54.8070095,9.5502945 55.9053219,9.9901625 C57.0117799,10.4313881 59.4880739,10.0702619 60.7588036,9.33307573 C60.4533397,8.94343958 59.7948954,8.17367058 59.6021137,7.86820669 Z M58.0286353,5.66343623 C56.9534024,6.13452943 54.8776056,6.79840428 54.1458499,6.74002673 C53.0964117,6.65585446 52.4637621,7.0278416 53.6720414,7.75823969 C55.3663478,8.77781027 57.8670788,7.86956431 59.0454906,7.12151719 C58.7726095,6.71423201 58.1684699,5.82770792 58.0286353,5.66343623 Z M56.5135344,3.35005639 C54.6943272,3.8455867 52.9090605,4.15919629 52.1895234,4.14697774 C51.1414428,4.13475918 50.6445549,5.63899912 52.6280338,6.02456243 C54.7676386,6.43727808 56.4035674,5.49916454 57.5887673,4.97240904 C57.2303563,4.45379924 56.7090313,3.70575212 56.5135344,3.35005639 Z M58.6640002,5.36476043 C58.824199,5.66479385 59.4364844,6.43592046 59.7134383,6.71287439 C61.168804,5.71909854 61.6100297,7.01426542 60.317578,7.61976273 C60.4261874,7.78674966 61.1172146,8.66920089 61.4213209,8.94208196 C64.8628807,6.32595347 60.7316513,3.98406366 58.6640002,5.36476043 Z M97.6601988,19.8559673 C96.6881449,19.1459334 95.6740048,18.46984 94.6204938,17.8344751 L81.3334935,17.8344751 C82.6001504,18.4168929 83.8192907,19.0984168 84.9732654,19.8559673 L97.6601988,19.8559673 Z M101.49954,23.0789507 C100.788149,22.3919963 100.040102,21.7118301 99.2608296,21.0710347 L86.687936,21.0710347 C87.4889302,21.694181 88.2586992,22.3729897 88.9904549,23.0789507 L101.49954,23.0789507 Z M90.1838005,24.3035215 C90.7933707,24.9728268 91.3757885,25.6557083 91.920193,26.3833911 L104.514808,26.3833911 C103.952755,25.6801454 103.360834,24.9728268 102.733615,24.3035215 L90.1838005,24.3035215 Z M55.7573416,19.8559673 C56.9045282,19.0997744 58.1100923,18.4128201 59.3604578,17.8344751 L46.0978946,17.8344751 C45.0321651,18.4779857 44.007164,19.1350725 43.0215339,19.8559673 L55.7573416,19.8559673 Z M51.7428673,23.0789507 C52.4841263,22.3675592 53.2552529,21.6996115 54.0643928,21.0710347 L41.4982873,21.0710347 C40.6986507,21.7240486 39.9343122,22.3784202 39.2025565,23.0789507 L51.7428673,23.0789507 Z M38.0227871,24.3035215 C37.3874222,24.9796149 36.7819249,25.6679268 36.210368,26.3833911 L48.8226325,26.3833911 C49.3711099,25.6665692 49.9494549,24.9646811 50.5535946,24.3035215 L38.0227871,24.3035215 Z M48.8497849,61.7140231 C48.4465725,61.040645 48.0854463,60.363194 47.7691215,59.6382263 L35.5831488,59.6382263 C35.926626,60.3469025 36.2945403,61.0515059 36.6855341,61.7140231 L48.8497849,61.7140231 Z M51.3233635,64.9546556 C50.7137934,64.3165755 50.1558127,63.6459125 49.643991,62.9358787 L37.4648064,62.9358787 C37.9263963,63.6350516 38.4151385,64.3070721 38.9256026,64.9546556 L51.3233635,64.9546556 Z M55.2251556,68.1912152 C54.2883997,67.5775722 53.4086637,66.9014788 52.58459,66.1751535 L39.9533189,66.1751535 C40.5710347,66.8675383 41.2240486,67.5599231 41.8974268,68.1912152 L55.2251556,68.1912152 Z M62.4286729,71.4345628 C60.6569823,70.926814 58.9545303,70.2534358 57.3606876,69.4266469 L43.3500773,69.4266469 C44.2298133,70.1488993 45.1462049,70.8127741 46.1006099,71.4345628 L62.4286729,71.4345628 Z M95.0386399,71.4345628 C95.9523163,70.8127741 96.8306947,70.1339655 97.6642717,69.4266469 L83.8043569,69.4266469 C82.1820043,70.2683696 80.4415389,70.926814 78.6209741,71.4345628 L95.0386399,71.4345628 Z M99.021889,68.1912152 C99.7061281,67.5409165 100.352354,66.8892602 100.972785,66.1751535 L88.4949246,66.1751535 C87.6912152,66.9096245 86.815552,67.5775722 85.889657,68.1912152 L99.021889,68.1912152 Z M101.971991,64.9546556 C102.475667,64.3029993 102.960337,63.6350516 103.419211,62.9358787 L91.3119805,62.9358787 C90.8313839,63.6459125 90.2924099,64.3233635 89.7167801,64.9546556 L101.971991,64.9546556 Z M104.174047,61.7140231 C104.573186,61.0392874 104.953319,60.3536906 105.315803,59.6382263 L93.0809558,59.6382263 C92.7931409,60.3550482 92.4564518,61.058294 92.0817494,61.7140231 L104.174047,61.7140231 Z M88.9646602,74.6643343 C90.3942312,74.0683404 91.764067,73.4058231 93.0619491,72.6523455 L48.0922344,72.6523455 C49.4335603,73.4058231 50.8264756,74.0764861 52.2614771,74.6643343 L88.9646602,74.6643343 Z M85.7484648,75.846819 C81.1705794,77.2818205 76.0129914,78 70.359873,78 C65.4303647,78 60.3732403,77.3157609 55.6242951,75.846819 L85.7484648,75.846819 Z" id="path-1"></path>
    </defs>
    <g id="Symbols" stroke="none" stroke-width="1" fill="none" fill-rule="evenodd">
        <g id="Navigation/Lvl-1-Active" transform="translate(-150.000000, -30.000000)">
            <g id="logo/nrma" transform="translate(150.000000, 30.000000)">
                <mask id="mask-2" fill="white">
                    <use xlink:href="#path-1"></use>
                </mask>
                <use id="Page-1" fill="#0A00F0" fill-rule="evenodd" xlink:href="#path-1"></use>
                <g id="colour/blue_dark" mask="url(#mask-2)" fill="#0A00F0" fill-rule="evenodd">
                    <rect id="Image" x="0" y="0" width="142" height="78"></rect>
                </g>
            </g>
        </g>
    </g>
</svg>